<svg width="22" height="22" viewBox="0 0 22 22" fill="none" xmlns="http://www.w3.org/2000/svg">
<g clip-path="url(#clip0_603_6188)">
<path d="M16.3185 15.8509C16.3185 15.8509 16.3891 15.8005 16.5018 15.7144C18.1913 14.4081 19.25 12.5152 19.25 10.4078C19.25 6.47894 15.5558 3.29077 11.0018 3.29077C6.446 3.29077 2.75 6.47894 2.75 10.4078C2.75 14.3384 6.44417 17.4166 11 17.4166C11.3887 17.4166 12.0267 17.3909 12.914 17.3396C14.0708 18.0913 15.7593 18.7082 17.237 18.7082C17.6944 18.7082 17.9098 18.3324 17.6165 17.9492C17.171 17.4029 16.5568 16.5274 16.3185 15.85V15.8509Z" stroke="#333461" stroke-width="2" stroke-linecap="round" stroke-linejoin="round"/>
<path d="M6.875 12.375C9.16667 14.6667 12.8333 14.6667 15.125 12.375" stroke="#20AD96" stroke-width="1.5" stroke-linecap="round" stroke-linejoin="round"/>
</g>
<defs>
<clipPath id="clip0_603_6188">
<rect width="22" height="22" fill="white"/>
</clipPath>
</defs>
</svg>
